<svg width="14" height="14" viewBox="0 0 14 14" fill="none" xmlns="http://www.w3.org/2000/svg">
<path d="M2.2 3.4V2.8C2.02933 2.8 1.86674 2.87268 1.75292 2.99985C1.6391 3.12702 1.58482 3.29664 1.60367 3.46626L2.2 3.4ZM11.8 3.4L12.3963 3.46626C12.4152 3.29664 12.3609 3.12702 12.2471 2.99985C12.1333 2.87268 11.9707 2.8 11.8 2.8V3.4ZM10.852 11.932L10.2557 11.8657L10.2556 11.866L10.852 11.932ZM9.6592 13L9.65924 12.4H9.6592V13ZM4.3408 13L4.3408 12.4L4.34076 12.4L4.3408 13ZM3.148 11.932L3.74436 11.866L3.74433 11.8657L3.148 11.932ZM4.207 1.6882L3.66431 1.4323L3.66429 1.43235L4.207 1.6882ZM5.2924 1L5.29239 1.6H5.2924V1ZM8.7076 1L8.7076 1.6L8.70791 1.6L8.7076 1ZM9.7936 1.6882L10.3364 1.4325L10.3363 1.4323L9.7936 1.6882ZM10.6 3.4V4C10.8055 4 10.9966 3.89488 11.1067 3.72139C11.2167 3.5479 11.2303 3.33016 11.1428 3.1443L10.6 3.4ZM3.4 3.4L2.85729 3.14415C2.76966 3.33001 2.78325 3.54778 2.89329 3.72132C3.00333 3.89485 3.19452 4 3.4 4V3.4ZM1 2.8C0.668629 2.8 0.4 3.06863 0.4 3.4C0.4 3.73137 0.668629 4 1 4V2.8ZM13 4C13.3314 4 13.6 3.73137 13.6 3.4C13.6 3.06863 13.3314 2.8 13 2.8V4ZM6.4 6.4C6.4 6.06863 6.13137 5.8 5.8 5.8C5.46863 5.8 5.2 6.06863 5.2 6.4H6.4ZM5.2 9.4C5.2 9.73137 5.46863 10 5.8 10C6.13137 10 6.4 9.73137 6.4 9.4H5.2ZM8.8 6.4C8.8 6.06863 8.53137 5.8 8.2 5.8C7.86863 5.8 7.6 6.06863 7.6 6.4H8.8ZM7.6 9.4C7.6 9.73137 7.86863 10 8.2 10C8.53137 10 8.8 9.73137 8.8 9.4H7.6ZM2.2 4H11.8V2.8H2.2V4ZM11.2037 3.33374L10.2557 11.8657L11.4483 11.9983L12.3963 3.46626L11.2037 3.33374ZM10.2556 11.866C10.2394 12.0128 10.1696 12.1485 10.0595 12.247L10.86 13.141C11.1901 12.8454 11.3996 12.4384 11.4484 11.998L10.2556 11.866ZM10.0595 12.247C9.94947 12.3455 9.80695 12.4 9.65924 12.4L9.65916 13.6C10.1023 13.6 10.5299 13.4366 10.86 13.141L10.0595 12.247ZM9.6592 12.4H4.3408V13.6H9.6592V12.4ZM4.34076 12.4C4.19305 12.4 4.05053 12.3455 3.94048 12.247L3.14001 13.141C3.47015 13.4366 3.89771 13.6 4.34084 13.6L4.34076 12.4ZM3.94048 12.247C3.83044 12.1485 3.76061 12.0128 3.74436 11.866L2.55164 11.998C2.60039 12.4384 2.80988 12.8454 3.14001 13.141L3.94048 12.247ZM3.74433 11.8657L2.79633 3.33374L1.60367 3.46626L2.55167 11.9983L3.74433 11.8657ZM4.74969 1.9441C4.79822 1.84119 4.875 1.7542 4.97109 1.69327L4.32851 0.67982C4.04024 0.862597 3.80989 1.12357 3.66431 1.4323L4.74969 1.9441ZM4.97109 1.69327C5.06718 1.63235 5.17862 1.6 5.29239 1.6L5.29241 0.4C4.95108 0.399996 4.61678 0.497042 4.32851 0.67982L4.97109 1.69327ZM5.2924 1.6H8.7076V0.4H5.2924V1.6ZM8.70791 1.6C8.82174 1.59994 8.93323 1.63226 9.02938 1.69319L9.67171 0.679579C9.38326 0.496791 9.04878 0.399825 8.70729 0.4L8.70791 1.6ZM9.02938 1.69319C9.12553 1.75412 9.20236 1.84115 9.25091 1.9441L10.3363 1.4323C10.1907 1.12343 9.96015 0.862366 9.67171 0.679579L9.02938 1.69319ZM9.25081 1.9439L10.0572 3.6557L11.1428 3.1443L10.3364 1.4325L9.25081 1.9439ZM10.6 2.8H3.4V4H10.6V2.8ZM3.94271 3.65585L4.74971 1.94405L3.66429 1.43235L2.85729 3.14415L3.94271 3.65585ZM1 4H13V2.8H1V4ZM5.2 6.4V9.4H6.4V6.4H5.2ZM7.6 6.4V9.4H8.8V6.4H7.6Z" fill="#00AE81"/>
</svg>
