<svg width="20" height="18" viewBox="0 0 20 18" fill="none" xmlns="http://www.w3.org/2000/svg">
<path d="M10 11.6667L9.47297 12.2003C9.7651 12.4888 10.2349 12.4888 10.527 12.2003L10 11.6667ZM10.75 1C10.75 0.585786 10.4142 0.25 10 0.25C9.58579 0.25 9.25 0.585786 9.25 1H10.75ZM6.92703 7.5775C6.63232 7.28643 6.15745 7.28938 5.86639 7.58409C5.57532 7.87879 5.57827 8.35366 5.87297 8.64472L6.92703 7.5775ZM14.127 8.64472C14.4217 8.35366 14.4247 7.87879 14.1336 7.58409C13.8425 7.28938 13.3677 7.28643 13.073 7.5775L14.127 8.64472ZM1.72709 13.2605C1.62548 12.8589 1.21759 12.6158 0.81603 12.7174C0.414471 12.819 0.17131 13.2269 0.272913 13.6284L1.72709 13.2605ZM1.5589 15.6533L0.831813 15.8373L0.831824 15.8373L1.5589 15.6533ZM3.3049 17L3.30479 17.75H3.3049V17ZM16.6951 17V17.75H16.6952L16.6951 17ZM18.4411 15.6533L19.1682 15.8373L19.1682 15.8373L18.4411 15.6533ZM19.7271 13.6284C19.8287 13.2269 19.5855 12.819 19.184 12.7174C18.7824 12.6158 18.3745 12.8589 18.2729 13.2605L19.7271 13.6284ZM10.75 11.6667V1H9.25V11.6667H10.75ZM10.527 11.1331L6.92703 7.5775L5.87297 8.64472L9.47297 12.2003L10.527 11.1331ZM10.527 12.2003L14.127 8.64472L13.073 7.5775L9.47297 11.1331L10.527 12.2003ZM0.272913 13.6284L0.831813 15.8373L2.28599 15.4694L1.72709 13.2605L0.272913 13.6284ZM0.831824 15.8373C0.970704 16.3861 1.29085 16.8714 1.73925 17.2173L2.65535 16.0295C2.47103 15.8873 2.34177 15.6898 2.28598 15.4693L0.831824 15.8373ZM1.73925 17.2173C2.18748 17.563 2.73854 17.7499 3.30479 17.75L3.30501 16.25C3.06848 16.25 2.83983 16.1718 2.65535 16.0295L1.73925 17.2173ZM3.3049 17.75H16.6951V16.25H3.3049V17.75ZM16.6952 17.75C17.2615 17.7499 17.8125 17.563 18.2608 17.2173L17.3447 16.0295C17.1602 16.1718 16.9315 16.25 16.695 16.25L16.6952 17.75ZM18.2608 17.2173C18.7092 16.8714 19.0293 16.3861 19.1682 15.8373L17.714 15.4693C17.6582 15.6898 17.529 15.8873 17.3447 16.0295L18.2608 17.2173ZM19.1682 15.8373L19.7271 13.6284L18.2729 13.2605L17.714 15.4694L19.1682 15.8373Z" fill="#00AE81"/>
</svg>
